<svg xmlns="http://www.w3.org/2000/svg" xmlns:xlink="http://www.w3.org/1999/xlink" width="500" zoomAndPan="magnify" viewBox="0 0 375 374.999991" height="500" preserveAspectRatio="xMidYMid meet" version="1.0"><defs><g/><clipPath id="32313a2925"><path d="M 150 111.464844 L 221 111.464844 L 221 158 L 150 158 Z M 150 111.464844 " clip-rule="nonzero"/></clipPath><clipPath id="c2ec7965a6"><path d="M 123.53125 186 L 251.78125 186 L 251.78125 206 L 123.53125 206 Z M 123.53125 186 " clip-rule="nonzero"/></clipPath><clipPath id="60c66bf1b6"><path d="M 129.257812 199.140625 L 241.667969 199.140625 L 241.667969 213.3125 L 129.257812 213.3125 Z M 129.257812 199.140625 " clip-rule="nonzero"/></clipPath></defs><g clip-path="url(#32313a2925)"><path fill="#dfaa3f" d="M 151.921875 150.421875 C 151.921875 131.902344 166.929688 116.894531 185.445312 116.894531 C 203.960938 116.894531 218.972656 131.902344 218.972656 150.421875 C 218.972656 152.78125 218.726562 155.082031 218.261719 157.304688 C 219.457031 153.796875 220.105469 150.039062 220.105469 146.125 C 220.105469 126.984375 204.589844 111.464844 185.445312 111.464844 C 166.304688 111.464844 150.785156 126.984375 150.785156 146.125 C 150.785156 150.039062 151.433594 153.796875 152.628906 157.304688 C 152.164062 155.082031 151.921875 152.78125 151.921875 150.421875 " fill-opacity="1" fill-rule="nonzero"/></g><path fill="#595959" d="M 184.558594 165.492188 L 177.78125 165.492188 L 177.78125 158.714844 L 184.558594 158.714844 L 184.558594 165.492188 " fill-opacity="1" fill-rule="nonzero"/><path fill="#595959" d="M 193.109375 165.492188 L 186.332031 165.492188 L 186.332031 158.714844 L 193.109375 158.714844 L 193.109375 165.492188 " fill-opacity="1" fill-rule="nonzero"/><path fill="#595959" d="M 184.558594 173.828125 L 177.78125 173.828125 L 177.78125 167.050781 L 184.558594 167.050781 L 184.558594 173.828125 " fill-opacity="1" fill-rule="nonzero"/><path fill="#595959" d="M 193.109375 173.828125 L 186.332031 173.828125 L 186.332031 167.050781 L 193.109375 167.050781 L 193.109375 173.828125 " fill-opacity="1" fill-rule="nonzero"/><path fill="#595959" d="M 185.445312 141.042969 L 225.660156 181.253906 L 235.976562 181.253906 L 185.445312 130.726562 L 134.914062 181.253906 L 145.234375 181.253906 L 185.445312 141.042969 " fill-opacity="1" fill-rule="nonzero"/><path fill="#d8d8d8" d="M 185.445312 143.378906 L 163.960938 165.238281 L 185.445312 146.335938 L 206.933594 165.238281 L 185.445312 143.378906 " fill-opacity="1" fill-rule="nonzero"/><g clip-path="url(#c2ec7965a6)"><path fill="#dfaa3f" d="M 251.375 186.78125 C 251.375 186.78125 251.082031 187.160156 250.535156 187.882812 C 249.988281 188.613281 249.128906 189.636719 247.945312 190.921875 C 247.339844 191.539062 246.683594 192.257812 245.886719 192.964844 C 245.492188 193.320312 245.097656 193.71875 244.644531 194.082031 C 244.195312 194.453125 243.730469 194.835938 243.25 195.234375 C 241.273438 196.773438 238.875 198.371094 236.015625 199.8125 C 231.070312 202.351562 224.691406 204.203125 217.582031 204.945312 L 211.097656 205.3125 C 210.625 205.324219 210.152344 205.328125 209.675781 205.328125 C 202.59375 205.328125 195.101562 204.46875 187.53125 203.171875 C 178.25 201.59375 169.65625 199.617188 161.859375 198.347656 C 161.519531 198.289062 161.175781 198.238281 160.84375 198.183594 C 158.609375 197.824219 156.441406 197.53125 154.355469 197.316406 C 153.148438 197.191406 151.96875 197.089844 150.808594 197.011719 C 149.355469 196.929688 147.9375 196.886719 146.578125 196.886719 C 144.699219 196.886719 142.914062 196.972656 141.238281 197.167969 C 138.335938 197.492188 135.734375 198.082031 133.519531 198.835938 C 131.296875 199.585938 129.457031 200.492188 127.992188 201.320312 C 127.269531 201.75 126.613281 202.128906 126.085938 202.507812 C 125.546875 202.867188 125.082031 203.171875 124.722656 203.460938 C 124 204.003906 123.621094 204.292969 123.621094 204.292969 C 123.621094 204.292969 123.921875 203.921875 124.492188 203.222656 C 124.769531 202.863281 125.152344 202.453125 125.613281 201.960938 C 126.066406 201.457031 126.632812 200.929688 127.277344 200.335938 C 128.585938 199.175781 130.296875 197.832031 132.507812 196.59375 C 134.707031 195.34375 137.394531 194.203125 140.488281 193.347656 C 143.582031 192.472656 147.066406 191.953125 150.792969 191.691406 C 151.957031 191.617188 153.148438 191.574219 154.355469 191.558594 C 154.753906 191.554688 155.148438 191.546875 155.546875 191.546875 C 157.277344 191.546875 159.042969 191.601562 160.84375 191.703125 C 161.4375 191.738281 162.023438 191.777344 162.621094 191.820312 C 170.886719 192.414062 179.730469 193.945312 188.828125 195.496094 C 196.71875 196.84375 204.191406 198.023438 211.097656 198.46875 C 212.164062 198.542969 213.21875 198.59375 214.257812 198.625 C 215.195312 198.660156 216.125 198.675781 217.042969 198.675781 C 217.222656 198.675781 217.402344 198.675781 217.582031 198.667969 C 224 198.625 229.765625 197.753906 234.542969 196.207031 C 237.339844 195.324219 239.800781 194.246094 241.910156 193.167969 C 244.007812 192.0625 245.753906 190.960938 247.15625 189.996094 C 248.539062 189.023438 249.605469 188.222656 250.296875 187.648438 C 251 187.078125 251.375 186.78125 251.375 186.78125 " fill-opacity="1" fill-rule="nonzero"/></g><path fill="#dfaa3f" d="M 211.097656 205.3125 C 212.195312 205.300781 213.273438 205.257812 214.347656 205.195312 C 215.445312 205.136719 216.515625 205.054688 217.582031 204.945312 L 211.097656 205.3125 " fill-opacity="1" fill-rule="nonzero"/><g clip-path="url(#60c66bf1b6)"><path fill="#dfaa3f" d="M 129.296875 203.980469 C 129.296875 203.980469 129.632812 203.746094 130.273438 203.308594 C 130.589844 203.085938 131.015625 202.855469 131.507812 202.558594 C 131.757812 202.410156 132.035156 202.28125 132.328125 202.128906 C 132.621094 201.976562 132.933594 201.816406 133.277344 201.675781 C 134.640625 201.058594 136.382812 200.449219 138.480469 200.023438 C 140.570312 199.59375 143.007812 199.335938 145.695312 199.335938 C 151.082031 199.316406 157.410156 200.316406 164.238281 201.832031 C 171.078125 203.339844 178.453125 205.335938 186.214844 207.023438 C 193.972656 208.722656 201.414062 209.851562 208.222656 209.996094 C 211.625 210.0625 214.855469 209.910156 217.863281 209.558594 C 220.867188 209.199219 223.644531 208.636719 226.144531 207.972656 C 228.648438 207.3125 230.871094 206.539062 232.789062 205.761719 C 233.757812 205.394531 234.628906 204.976562 235.449219 204.628906 C 236.25 204.242188 236.984375 203.886719 237.644531 203.570312 C 238.292969 203.230469 238.871094 202.925781 239.371094 202.660156 C 239.871094 202.398438 240.28125 202.148438 240.617188 201.957031 C 241.292969 201.574219 241.648438 201.371094 241.648438 201.371094 C 241.648438 201.371094 241.324219 201.621094 240.710938 202.097656 C 240.398438 202.332031 240.027344 202.636719 239.5625 202.964844 C 239.09375 203.292969 238.558594 203.671875 237.953125 204.097656 C 237.328125 204.496094 236.640625 204.949219 235.871094 205.421875 C 235.085938 205.875 234.25 206.398438 233.308594 206.875 C 231.445312 207.882812 229.25 208.90625 226.734375 209.828125 C 224.21875 210.753906 221.382812 211.582031 218.277344 212.1875 C 215.167969 212.785156 211.796875 213.167969 208.238281 213.28125 C 201.117188 213.503906 193.3125 212.5625 185.386719 210.828125 C 177.453125 209.101562 170.117188 206.859375 163.449219 205.023438 C 156.785156 203.171875 150.757812 201.738281 145.609375 201.28125 C 143.042969 201.042969 140.703125 201.050781 138.664062 201.242188 C 136.621094 201.429688 134.882812 201.8125 133.496094 202.242188 C 133.140625 202.339844 132.820312 202.453125 132.515625 202.566406 C 132.210938 202.679688 131.921875 202.773438 131.664062 202.882812 C 131.152344 203.105469 130.703125 203.277344 130.355469 203.453125 C 129.664062 203.796875 129.296875 203.980469 129.296875 203.980469 " fill-opacity="1" fill-rule="nonzero"/></g><path fill="#d8d8d8" d="M 217.445312 149.925781 C 217.445312 132.253906 203.117188 117.929688 185.445312 117.929688 C 167.773438 117.929688 153.449219 132.253906 153.449219 149.925781 C 153.449219 150.234375 153.464844 150.539062 153.472656 150.84375 C 153.972656 133.609375 168.089844 119.785156 185.445312 119.785156 C 202.804688 119.785156 216.921875 133.609375 217.421875 150.84375 C 217.429688 150.539062 217.445312 150.234375 217.445312 149.925781 " fill-opacity="1" fill-rule="nonzero"/><g fill="#595959" fill-opacity="1"><g transform="translate(76.305541, 236.85501)"><g><path d="M 1.140625 -15.671875 L 5.6875 -15.671875 C 7.863281 -15.671875 9.722656 -14.925781 11.265625 -13.4375 C 12.804688 -11.945312 13.578125 -10.082031 13.578125 -7.84375 C 13.578125 -5.59375 12.804688 -3.722656 11.265625 -2.234375 C 9.734375 -0.742188 7.875 0 5.6875 0 L 1.140625 0 Z M 4.71875 -3.1875 L 5.265625 -3.1875 C 6.566406 -3.1875 7.628906 -3.625 8.453125 -4.5 C 9.285156 -5.382812 9.710938 -6.492188 9.734375 -7.828125 C 9.734375 -9.160156 9.316406 -10.269531 8.484375 -11.15625 C 7.648438 -12.039062 6.578125 -12.484375 5.265625 -12.484375 L 4.71875 -12.484375 Z M 4.71875 -3.1875 "/></g></g></g><g fill="#595959" fill-opacity="1"><g transform="translate(94.162779, 236.85501)"><g><path d="M 10.109375 -15.671875 L 10.109375 -12.546875 L 4.71875 -12.546875 L 4.71875 -9.421875 L 9.875 -9.421875 L 9.875 -6.28125 L 4.71875 -6.28125 L 4.71875 -3.140625 L 10.109375 -3.140625 L 10.109375 0 L 1.140625 0 L 1.140625 -15.671875 Z M 10.109375 -15.671875 "/></g></g></g><g fill="#595959" fill-opacity="1"><g transform="translate(109.018632, 236.85501)"><g><path d="M 9.484375 -3.234375 C 10.023438 -3.234375 10.550781 -3.3125 11.0625 -3.46875 C 11.582031 -3.632812 11.960938 -3.796875 12.203125 -3.953125 L 12.5625 -4.203125 L 14.078125 -1.15625 C 14.023438 -1.125 13.953125 -1.070312 13.859375 -1 C 13.773438 -0.9375 13.570312 -0.820312 13.25 -0.65625 C 12.925781 -0.488281 12.582031 -0.335938 12.21875 -0.203125 C 11.851562 -0.078125 11.367188 0.03125 10.765625 0.125 C 10.171875 0.226562 9.5625 0.28125 8.9375 0.28125 C 7.476562 0.28125 6.09375 -0.0703125 4.78125 -0.78125 C 3.476562 -1.5 2.425781 -2.484375 1.625 -3.734375 C 0.832031 -4.992188 0.4375 -6.351562 0.4375 -7.8125 C 0.4375 -8.914062 0.671875 -9.972656 1.140625 -10.984375 C 1.609375 -11.992188 2.234375 -12.859375 3.015625 -13.578125 C 3.796875 -14.304688 4.703125 -14.882812 5.734375 -15.3125 C 6.773438 -15.738281 7.84375 -15.953125 8.9375 -15.953125 C 9.945312 -15.953125 10.878906 -15.832031 11.734375 -15.59375 C 12.585938 -15.351562 13.191406 -15.113281 13.546875 -14.875 L 14.078125 -14.515625 L 12.5625 -11.46875 C 12.46875 -11.550781 12.332031 -11.644531 12.15625 -11.75 C 11.976562 -11.851562 11.625 -11.992188 11.09375 -12.171875 C 10.5625 -12.347656 10.023438 -12.4375 9.484375 -12.4375 C 8.617188 -12.4375 7.84375 -12.296875 7.15625 -12.015625 C 6.476562 -11.742188 5.9375 -11.378906 5.53125 -10.921875 C 5.132812 -10.460938 4.832031 -9.96875 4.625 -9.4375 C 4.414062 -8.914062 4.3125 -8.382812 4.3125 -7.84375 C 4.3125 -6.65625 4.753906 -5.585938 5.640625 -4.640625 C 6.535156 -3.703125 7.816406 -3.234375 9.484375 -3.234375 Z M 9.484375 -3.234375 "/></g></g></g><g fill="#595959" fill-opacity="1"><g transform="translate(127.160804, 236.85501)"><g><path d="M 0.4375 -7.84375 C 0.4375 -10.113281 1.207031 -12.03125 2.75 -13.59375 C 4.300781 -15.164062 6.164062 -15.953125 8.34375 -15.953125 C 10.53125 -15.953125 12.390625 -15.171875 13.921875 -13.609375 C 15.453125 -12.046875 16.21875 -10.125 16.21875 -7.84375 C 16.21875 -5.550781 15.460938 -3.625 13.953125 -2.0625 C 12.453125 -0.5 10.582031 0.28125 8.34375 0.28125 C 6.050781 0.28125 4.160156 -0.492188 2.671875 -2.046875 C 1.179688 -3.597656 0.4375 -5.53125 0.4375 -7.84375 Z M 4.296875 -7.84375 C 4.296875 -7.019531 4.421875 -6.269531 4.671875 -5.59375 C 4.921875 -4.914062 5.363281 -4.34375 6 -3.875 C 6.632812 -3.40625 7.414062 -3.171875 8.34375 -3.171875 C 9.675781 -3.171875 10.679688 -3.625 11.359375 -4.53125 C 12.035156 -5.445312 12.375 -6.550781 12.375 -7.84375 C 12.375 -9.125 12.023438 -10.222656 11.328125 -11.140625 C 10.640625 -12.054688 9.644531 -12.515625 8.34375 -12.515625 C 7.050781 -12.515625 6.050781 -12.054688 5.34375 -11.140625 C 4.644531 -10.222656 4.296875 -9.125 4.296875 -7.84375 Z M 4.296875 -7.84375 "/></g></g></g><g fill="#595959" fill-opacity="1"><g transform="translate(147.658504, 236.85501)"><g/></g></g><g fill="#595959" fill-opacity="1"><g transform="translate(156.682542, 236.85501)"><g><path d="M 0.15625 -12.546875 L 0.15625 -15.671875 L 11.171875 -15.671875 L 11.171875 -12.546875 L 7.453125 -12.546875 L 7.453125 0 L 3.875 0 L 3.875 -12.546875 Z M 0.15625 -12.546875 "/></g></g></g><g fill="#595959" fill-opacity="1"><g transform="translate(171.842329, 236.85501)"><g><path d="M 1.140625 -15.671875 L 6.75 -15.671875 C 8.25 -15.671875 9.472656 -15.269531 10.421875 -14.46875 C 11.378906 -13.664062 11.859375 -12.515625 11.859375 -11.015625 C 11.859375 -9.867188 11.566406 -8.90625 10.984375 -8.125 C 10.410156 -7.34375 9.628906 -6.796875 8.640625 -6.484375 L 14.046875 0 L 9.5 0 L 4.71875 -6.1875 L 4.71875 0 L 1.140625 0 Z M 4.71875 -8.71875 L 5.125 -8.71875 C 5.457031 -8.71875 5.738281 -8.722656 5.96875 -8.734375 C 6.195312 -8.753906 6.457031 -8.800781 6.75 -8.875 C 7.039062 -8.945312 7.273438 -9.050781 7.453125 -9.1875 C 7.628906 -9.332031 7.78125 -9.535156 7.90625 -9.796875 C 8.03125 -10.066406 8.09375 -10.390625 8.09375 -10.765625 C 8.09375 -11.148438 8.03125 -11.472656 7.90625 -11.734375 C 7.78125 -12.003906 7.628906 -12.207031 7.453125 -12.34375 C 7.273438 -12.488281 7.039062 -12.597656 6.75 -12.671875 C 6.457031 -12.742188 6.195312 -12.785156 5.96875 -12.796875 C 5.738281 -12.816406 5.457031 -12.828125 5.125 -12.828125 L 4.71875 -12.828125 Z M 4.71875 -8.71875 "/></g></g></g><g fill="#595959" fill-opacity="1"><g transform="translate(189.281654, 236.85501)"><g><path d="M 9.09375 -15.671875 L 15.421875 0 L 11.59375 0 L 10.4375 -3.140625 L 4.46875 -3.140625 L 3.3125 0 L -0.53125 0 L 5.796875 -15.671875 Z M 9.21875 -6.265625 L 7.46875 -10.828125 L 7.421875 -10.828125 L 5.6875 -6.265625 Z M 9.21875 -6.265625 "/></g></g></g><g fill="#595959" fill-opacity="1"><g transform="translate(208.012713, 236.85501)"><g><path d="M 1.140625 -15.671875 L 5.6875 -15.671875 C 7.863281 -15.671875 9.722656 -14.925781 11.265625 -13.4375 C 12.804688 -11.945312 13.578125 -10.082031 13.578125 -7.84375 C 13.578125 -5.59375 12.804688 -3.722656 11.265625 -2.234375 C 9.734375 -0.742188 7.875 0 5.6875 0 L 1.140625 0 Z M 4.71875 -3.1875 L 5.265625 -3.1875 C 6.566406 -3.1875 7.628906 -3.625 8.453125 -4.5 C 9.285156 -5.382812 9.710938 -6.492188 9.734375 -7.828125 C 9.734375 -9.160156 9.316406 -10.269531 8.484375 -11.15625 C 7.648438 -12.039062 6.578125 -12.484375 5.265625 -12.484375 L 4.71875 -12.484375 Z M 4.71875 -3.1875 "/></g></g></g><g fill="#595959" fill-opacity="1"><g transform="translate(225.869947, 236.85501)"><g><path d="M 10.109375 -15.671875 L 10.109375 -12.546875 L 4.71875 -12.546875 L 4.71875 -9.421875 L 9.875 -9.421875 L 9.875 -6.28125 L 4.71875 -6.28125 L 4.71875 -3.140625 L 10.109375 -3.140625 L 10.109375 0 L 1.140625 0 L 1.140625 -15.671875 Z M 10.109375 -15.671875 "/></g></g></g><g fill="#595959" fill-opacity="1"><g transform="translate(240.725796, 236.85501)"><g/></g></g><g fill="#595959" fill-opacity="1"><g transform="translate(249.749828, 236.85501)"><g><path d="M 4.71875 -6.28125 L 4.71875 0 L 1.140625 0 L 1.140625 -15.671875 L 4.71875 -15.671875 L 4.71875 -9.421875 L 9.765625 -9.421875 L 9.765625 -15.671875 L 13.34375 -15.671875 L 13.34375 0 L 9.765625 0 L 9.765625 -6.28125 Z M 4.71875 -6.28125 "/></g></g></g><g fill="#595959" fill-opacity="1"><g transform="translate(268.062971, 236.85501)"><g><path d="M 13.1875 -15.671875 L 13.1875 -5.5625 C 13.1875 -3.632812 12.664062 -2.175781 11.625 -1.1875 C 10.582031 -0.207031 9.0625 0.28125 7.0625 0.28125 C 5.0625 0.28125 3.539062 -0.207031 2.5 -1.1875 C 1.46875 -2.175781 0.953125 -3.632812 0.953125 -5.5625 L 0.953125 -15.671875 L 4.515625 -15.671875 L 4.515625 -6.609375 C 4.515625 -5.347656 4.710938 -4.46875 5.109375 -3.96875 C 5.515625 -3.476562 6.164062 -3.234375 7.0625 -3.234375 C 7.96875 -3.234375 8.617188 -3.476562 9.015625 -3.96875 C 9.410156 -4.46875 9.609375 -5.347656 9.609375 -6.609375 L 9.609375 -15.671875 Z M 13.1875 -15.671875 "/></g></g></g><g fill="#595959" fill-opacity="1"><g transform="translate(286.034188, 236.85501)"><g><path d="M 1.140625 -15.671875 L 6 -15.671875 C 7.46875 -15.671875 8.640625 -15.359375 9.515625 -14.734375 C 10.390625 -14.109375 10.828125 -13.09375 10.828125 -11.6875 C 10.828125 -10.113281 10.175781 -8.992188 8.875 -8.328125 C 11.101562 -7.929688 12.21875 -6.613281 12.21875 -4.375 C 12.21875 -3.050781 11.757812 -1.988281 10.84375 -1.1875 C 9.9375 -0.394531 8.6875 0 7.09375 0 L 1.140625 0 Z M 4.71875 -9.53125 L 5 -9.53125 C 5.789062 -9.53125 6.382812 -9.671875 6.78125 -9.953125 C 7.175781 -10.234375 7.375 -10.691406 7.375 -11.328125 C 7.375 -12.390625 6.582031 -12.921875 5 -12.921875 L 4.71875 -12.921875 Z M 4.71875 -2.75 L 5.828125 -2.75 C 7.578125 -2.75 8.453125 -3.332031 8.453125 -4.5 C 8.453125 -5.195312 8.234375 -5.695312 7.796875 -6 C 7.359375 -6.300781 6.703125 -6.453125 5.828125 -6.453125 L 4.71875 -6.453125 Z M 4.71875 -2.75 "/></g></g></g><g fill="#595959" fill-opacity="1"><g transform="translate(119.024022, 259.454925)"><g><path d="M 4.1875 0.09375 C 3.476562 0.09375 2.835938 -0.0546875 2.265625 -0.359375 C 1.691406 -0.671875 1.242188 -1.097656 0.921875 -1.640625 C 0.597656 -2.191406 0.4375 -2.8125 0.4375 -3.5 C 0.4375 -4.1875 0.597656 -4.800781 0.921875 -5.34375 C 1.253906 -5.894531 1.703125 -6.320312 2.265625 -6.625 C 2.835938 -6.9375 3.476562 -7.09375 4.1875 -7.09375 C 4.757812 -7.09375 5.28125 -6.992188 5.75 -6.796875 C 6.226562 -6.597656 6.628906 -6.3125 6.953125 -5.9375 L 6.125 -5.140625 C 5.613281 -5.679688 4.988281 -5.953125 4.25 -5.953125 C 3.769531 -5.953125 3.335938 -5.847656 2.953125 -5.640625 C 2.578125 -5.429688 2.28125 -5.140625 2.0625 -4.765625 C 1.851562 -4.390625 1.75 -3.96875 1.75 -3.5 C 1.75 -3.03125 1.851562 -2.609375 2.0625 -2.234375 C 2.28125 -1.859375 2.578125 -1.566406 2.953125 -1.359375 C 3.335938 -1.148438 3.769531 -1.046875 4.25 -1.046875 C 4.988281 -1.046875 5.613281 -1.320312 6.125 -1.875 L 6.953125 -1.0625 C 6.628906 -0.6875 6.226562 -0.398438 5.75 -0.203125 C 5.28125 -0.00390625 4.757812 0.09375 4.1875 0.09375 Z M 4.1875 0.09375 "/></g></g></g><g fill="#595959" fill-opacity="1"><g transform="translate(126.901174, 259.454925)"><g><path d="M 4.203125 0.09375 C 3.492188 0.09375 2.851562 -0.0546875 2.28125 -0.359375 C 1.707031 -0.671875 1.253906 -1.101562 0.921875 -1.65625 C 0.597656 -2.207031 0.4375 -2.820312 0.4375 -3.5 C 0.4375 -4.175781 0.597656 -4.789062 0.921875 -5.34375 C 1.253906 -5.894531 1.707031 -6.320312 2.28125 -6.625 C 2.851562 -6.9375 3.492188 -7.09375 4.203125 -7.09375 C 4.921875 -7.09375 5.566406 -6.9375 6.140625 -6.625 C 6.710938 -6.320312 7.160156 -5.894531 7.484375 -5.34375 C 7.816406 -4.800781 7.984375 -4.1875 7.984375 -3.5 C 7.984375 -2.8125 7.816406 -2.191406 7.484375 -1.640625 C 7.160156 -1.097656 6.710938 -0.671875 6.140625 -0.359375 C 5.566406 -0.0546875 4.921875 0.09375 4.203125 0.09375 Z M 4.203125 -1.046875 C 4.671875 -1.046875 5.09375 -1.148438 5.46875 -1.359375 C 5.84375 -1.566406 6.132812 -1.859375 6.34375 -2.234375 C 6.5625 -2.609375 6.671875 -3.03125 6.671875 -3.5 C 6.671875 -3.96875 6.5625 -4.390625 6.34375 -4.765625 C 6.132812 -5.140625 5.84375 -5.429688 5.46875 -5.640625 C 5.09375 -5.847656 4.671875 -5.953125 4.203125 -5.953125 C 3.742188 -5.953125 3.328125 -5.847656 2.953125 -5.640625 C 2.578125 -5.429688 2.28125 -5.140625 2.0625 -4.765625 C 1.851562 -4.390625 1.75 -3.96875 1.75 -3.5 C 1.75 -3.03125 1.851562 -2.609375 2.0625 -2.234375 C 2.28125 -1.859375 2.578125 -1.566406 2.953125 -1.359375 C 3.328125 -1.148438 3.742188 -1.046875 4.203125 -1.046875 Z M 4.203125 -1.046875 "/></g></g></g><g fill="#595959" fill-opacity="1"><g transform="translate(135.927873, 259.454925)"><g><path d="M 7.15625 -7 L 7.15625 0 L 6.09375 0 L 2.234375 -4.734375 L 2.234375 0 L 0.9375 0 L 0.9375 -7 L 2.015625 -7 L 5.875 -2.265625 L 5.875 -7 Z M 7.15625 -7 "/></g></g></g><g fill="#595959" fill-opacity="1"><g transform="translate(144.634699, 259.454925)"><g><path d="M 7.15625 -7 L 7.15625 0 L 6.09375 0 L 2.234375 -4.734375 L 2.234375 0 L 0.9375 0 L 0.9375 -7 L 2.015625 -7 L 5.875 -2.265625 L 5.875 -7 Z M 7.15625 -7 "/></g></g></g><g fill="#595959" fill-opacity="1"><g transform="translate(153.341524, 259.454925)"><g><path d="M 6.1875 -1.09375 L 6.1875 0 L 0.9375 0 L 0.9375 -7 L 6.046875 -7 L 6.046875 -5.90625 L 2.234375 -5.90625 L 2.234375 -4.09375 L 5.625 -4.09375 L 5.625 -3.015625 L 2.234375 -3.015625 L 2.234375 -1.09375 Z M 6.1875 -1.09375 "/></g></g></g><g fill="#595959" fill-opacity="1"><g transform="translate(160.648896, 259.454925)"><g><path d="M 4.1875 0.09375 C 3.476562 0.09375 2.835938 -0.0546875 2.265625 -0.359375 C 1.691406 -0.671875 1.242188 -1.097656 0.921875 -1.640625 C 0.597656 -2.191406 0.4375 -2.8125 0.4375 -3.5 C 0.4375 -4.1875 0.597656 -4.800781 0.921875 -5.34375 C 1.253906 -5.894531 1.703125 -6.320312 2.265625 -6.625 C 2.835938 -6.9375 3.476562 -7.09375 4.1875 -7.09375 C 4.757812 -7.09375 5.28125 -6.992188 5.75 -6.796875 C 6.226562 -6.597656 6.628906 -6.3125 6.953125 -5.9375 L 6.125 -5.140625 C 5.613281 -5.679688 4.988281 -5.953125 4.25 -5.953125 C 3.769531 -5.953125 3.335938 -5.847656 2.953125 -5.640625 C 2.578125 -5.429688 2.28125 -5.140625 2.0625 -4.765625 C 1.851562 -4.390625 1.75 -3.96875 1.75 -3.5 C 1.75 -3.03125 1.851562 -2.609375 2.0625 -2.234375 C 2.28125 -1.859375 2.578125 -1.566406 2.953125 -1.359375 C 3.335938 -1.148438 3.769531 -1.046875 4.25 -1.046875 C 4.988281 -1.046875 5.613281 -1.320312 6.125 -1.875 L 6.953125 -1.0625 C 6.628906 -0.6875 6.226562 -0.398438 5.75 -0.203125 C 5.28125 -0.00390625 4.757812 0.09375 4.1875 0.09375 Z M 4.1875 0.09375 "/></g></g></g><g fill="#595959" fill-opacity="1"><g transform="translate(168.52605, 259.454925)"><g><path d="M 2.359375 -5.90625 L 0.046875 -5.90625 L 0.046875 -7 L 5.984375 -7 L 5.984375 -5.90625 L 3.65625 -5.90625 L 3.65625 0 L 2.359375 0 Z M 2.359375 -5.90625 "/></g></g></g><g fill="#595959" fill-opacity="1"><g transform="translate(175.153689, 259.454925)"><g><path d="M 0.9375 -7 L 2.234375 -7 L 2.234375 0 L 0.9375 0 Z M 0.9375 -7 "/></g></g></g><g fill="#595959" fill-opacity="1"><g transform="translate(178.952452, 259.454925)"><g><path d="M 7.15625 -7 L 7.15625 0 L 6.09375 0 L 2.234375 -4.734375 L 2.234375 0 L 0.9375 0 L 0.9375 -7 L 2.015625 -7 L 5.875 -2.265625 L 5.875 -7 Z M 7.15625 -7 "/></g></g></g><g fill="#595959" fill-opacity="1"><g transform="translate(187.659277, 259.454925)"><g><path d="M 5.71875 -3.578125 L 6.953125 -3.578125 L 6.953125 -0.796875 C 6.585938 -0.503906 6.164062 -0.28125 5.6875 -0.125 C 5.207031 0.0195312 4.710938 0.09375 4.203125 0.09375 C 3.492188 0.09375 2.851562 -0.0546875 2.28125 -0.359375 C 1.707031 -0.671875 1.253906 -1.097656 0.921875 -1.640625 C 0.597656 -2.191406 0.4375 -2.8125 0.4375 -3.5 C 0.4375 -4.1875 0.597656 -4.800781 0.921875 -5.34375 C 1.253906 -5.894531 1.707031 -6.320312 2.28125 -6.625 C 2.863281 -6.9375 3.515625 -7.09375 4.234375 -7.09375 C 4.816406 -7.09375 5.347656 -6.992188 5.828125 -6.796875 C 6.304688 -6.609375 6.710938 -6.328125 7.046875 -5.953125 L 6.21875 -5.15625 C 5.6875 -5.6875 5.046875 -5.953125 4.296875 -5.953125 C 3.796875 -5.953125 3.351562 -5.847656 2.96875 -5.640625 C 2.59375 -5.441406 2.296875 -5.15625 2.078125 -4.78125 C 1.859375 -4.40625 1.75 -3.976562 1.75 -3.5 C 1.75 -3.03125 1.859375 -2.609375 2.078125 -2.234375 C 2.296875 -1.867188 2.59375 -1.578125 2.96875 -1.359375 C 3.351562 -1.148438 3.789062 -1.046875 4.28125 -1.046875 C 4.820312 -1.046875 5.300781 -1.164062 5.71875 -1.40625 Z M 5.71875 -3.578125 "/></g></g></g><g fill="#595959" fill-opacity="1"><g transform="translate(195.986249, 259.454925)"><g/></g></g><g fill="#595959" fill-opacity="1"><g transform="translate(199.355172, 259.454925)"><g><path d="M 5.90625 -3.640625 C 6.289062 -3.515625 6.59375 -3.300781 6.8125 -3 C 7.039062 -2.707031 7.15625 -2.34375 7.15625 -1.90625 C 7.15625 -1.289062 6.921875 -0.816406 6.453125 -0.484375 C 5.992188 -0.160156 5.316406 0 4.421875 0 L 0.9375 0 L 0.9375 -7 L 4.21875 -7 C 5.039062 -7 5.675781 -6.835938 6.125 -6.515625 C 6.570312 -6.191406 6.796875 -5.75 6.796875 -5.1875 C 6.796875 -4.832031 6.710938 -4.519531 6.546875 -4.25 C 6.390625 -3.988281 6.175781 -3.785156 5.90625 -3.640625 Z M 2.234375 -5.984375 L 2.234375 -4.046875 L 4.078125 -4.046875 C 4.535156 -4.046875 4.882812 -4.128906 5.125 -4.296875 C 5.363281 -4.460938 5.484375 -4.703125 5.484375 -5.015625 C 5.484375 -5.328125 5.363281 -5.566406 5.125 -5.734375 C 4.882812 -5.898438 4.535156 -5.984375 4.078125 -5.984375 Z M 4.34375 -1.015625 C 5.34375 -1.015625 5.84375 -1.351562 5.84375 -2.03125 C 5.84375 -2.707031 5.34375 -3.046875 4.34375 -3.046875 L 2.234375 -3.046875 L 2.234375 -1.015625 Z M 4.34375 -1.015625 "/></g></g></g><g fill="#595959" fill-opacity="1"><g transform="translate(207.57219, 259.454925)"><g><path d="M 3.953125 0.09375 C 2.984375 0.09375 2.226562 -0.175781 1.6875 -0.71875 C 1.144531 -1.257812 0.875 -2.035156 0.875 -3.046875 L 0.875 -7 L 2.1875 -7 L 2.1875 -3.09375 C 2.1875 -1.726562 2.773438 -1.046875 3.953125 -1.046875 C 5.140625 -1.046875 5.734375 -1.726562 5.734375 -3.09375 L 5.734375 -7 L 7.015625 -7 L 7.015625 -3.046875 C 7.015625 -2.035156 6.742188 -1.257812 6.203125 -0.71875 C 5.671875 -0.175781 4.921875 0.09375 3.953125 0.09375 Z M 3.953125 0.09375 "/></g></g></g><g fill="#595959" fill-opacity="1"><g transform="translate(216.069101, 259.454925)"><g><path d="M 3.109375 0.09375 C 2.566406 0.09375 2.046875 0.0195312 1.546875 -0.125 C 1.046875 -0.28125 0.644531 -0.484375 0.34375 -0.734375 L 0.796875 -1.75 C 1.085938 -1.519531 1.441406 -1.332031 1.859375 -1.1875 C 2.273438 -1.050781 2.691406 -0.984375 3.109375 -0.984375 C 3.628906 -0.984375 4.015625 -1.066406 4.265625 -1.234375 C 4.523438 -1.398438 4.65625 -1.617188 4.65625 -1.890625 C 4.65625 -2.085938 4.582031 -2.25 4.4375 -2.375 C 4.300781 -2.507812 4.117188 -2.613281 3.890625 -2.6875 C 3.671875 -2.757812 3.375 -2.84375 3 -2.9375 C 2.46875 -3.0625 2.035156 -3.1875 1.703125 -3.3125 C 1.367188 -3.445312 1.082031 -3.644531 0.84375 -3.90625 C 0.613281 -4.175781 0.5 -4.546875 0.5 -5.015625 C 0.5 -5.398438 0.601562 -5.75 0.8125 -6.0625 C 1.019531 -6.382812 1.335938 -6.632812 1.765625 -6.8125 C 2.191406 -7 2.707031 -7.09375 3.3125 -7.09375 C 3.738281 -7.09375 4.160156 -7.039062 4.578125 -6.9375 C 4.992188 -6.832031 5.351562 -6.679688 5.65625 -6.484375 L 5.234375 -5.46875 C 4.929688 -5.644531 4.613281 -5.78125 4.28125 -5.875 C 3.945312 -5.96875 3.625 -6.015625 3.3125 -6.015625 C 2.800781 -6.015625 2.421875 -5.925781 2.171875 -5.75 C 1.921875 -5.582031 1.796875 -5.351562 1.796875 -5.0625 C 1.796875 -4.863281 1.863281 -4.703125 2 -4.578125 C 2.144531 -4.453125 2.328125 -4.351562 2.546875 -4.28125 C 2.765625 -4.207031 3.066406 -4.125 3.453125 -4.03125 C 3.972656 -3.90625 4.398438 -3.773438 4.734375 -3.640625 C 5.066406 -3.515625 5.347656 -3.316406 5.578125 -3.046875 C 5.816406 -2.785156 5.9375 -2.429688 5.9375 -1.984375 C 5.9375 -1.597656 5.832031 -1.242188 5.625 -0.921875 C 5.414062 -0.609375 5.097656 -0.359375 4.671875 -0.171875 C 4.242188 0.00390625 3.722656 0.09375 3.109375 0.09375 Z M 3.109375 0.09375 "/></g></g></g><g fill="#595959" fill-opacity="1"><g transform="translate(222.966638, 259.454925)"><g><path d="M 0.9375 -7 L 2.234375 -7 L 2.234375 0 L 0.9375 0 Z M 0.9375 -7 "/></g></g></g><g fill="#595959" fill-opacity="1"><g transform="translate(226.765401, 259.454925)"><g><path d="M 7.15625 -7 L 7.15625 0 L 6.09375 0 L 2.234375 -4.734375 L 2.234375 0 L 0.9375 0 L 0.9375 -7 L 2.015625 -7 L 5.875 -2.265625 L 5.875 -7 Z M 7.15625 -7 "/></g></g></g><g fill="#595959" fill-opacity="1"><g transform="translate(235.472226, 259.454925)"><g><path d="M 6.1875 -1.09375 L 6.1875 0 L 0.9375 0 L 0.9375 -7 L 6.046875 -7 L 6.046875 -5.90625 L 2.234375 -5.90625 L 2.234375 -4.09375 L 5.625 -4.09375 L 5.625 -3.015625 L 2.234375 -3.015625 L 2.234375 -1.09375 Z M 6.1875 -1.09375 "/></g></g></g><g fill="#595959" fill-opacity="1"><g transform="translate(242.779599, 259.454925)"><g><path d="M 3.109375 0.09375 C 2.566406 0.09375 2.046875 0.0195312 1.546875 -0.125 C 1.046875 -0.28125 0.644531 -0.484375 0.34375 -0.734375 L 0.796875 -1.75 C 1.085938 -1.519531 1.441406 -1.332031 1.859375 -1.1875 C 2.273438 -1.050781 2.691406 -0.984375 3.109375 -0.984375 C 3.628906 -0.984375 4.015625 -1.066406 4.265625 -1.234375 C 4.523438 -1.398438 4.65625 -1.617188 4.65625 -1.890625 C 4.65625 -2.085938 4.582031 -2.25 4.4375 -2.375 C 4.300781 -2.507812 4.117188 -2.613281 3.890625 -2.6875 C 3.671875 -2.757812 3.375 -2.84375 3 -2.9375 C 2.46875 -3.0625 2.035156 -3.1875 1.703125 -3.3125 C 1.367188 -3.445312 1.082031 -3.644531 0.84375 -3.90625 C 0.613281 -4.175781 0.5 -4.546875 0.5 -5.015625 C 0.5 -5.398438 0.601562 -5.75 0.8125 -6.0625 C 1.019531 -6.382812 1.335938 -6.632812 1.765625 -6.8125 C 2.191406 -7 2.707031 -7.09375 3.3125 -7.09375 C 3.738281 -7.09375 4.160156 -7.039062 4.578125 -6.9375 C 4.992188 -6.832031 5.351562 -6.679688 5.65625 -6.484375 L 5.234375 -5.46875 C 4.929688 -5.644531 4.613281 -5.78125 4.28125 -5.875 C 3.945312 -5.96875 3.625 -6.015625 3.3125 -6.015625 C 2.800781 -6.015625 2.421875 -5.925781 2.171875 -5.75 C 1.921875 -5.582031 1.796875 -5.351562 1.796875 -5.0625 C 1.796875 -4.863281 1.863281 -4.703125 2 -4.578125 C 2.144531 -4.453125 2.328125 -4.351562 2.546875 -4.28125 C 2.765625 -4.207031 3.066406 -4.125 3.453125 -4.03125 C 3.972656 -3.90625 4.398438 -3.773438 4.734375 -3.640625 C 5.066406 -3.515625 5.347656 -3.316406 5.578125 -3.046875 C 5.816406 -2.785156 5.9375 -2.429688 5.9375 -1.984375 C 5.9375 -1.597656 5.832031 -1.242188 5.625 -0.921875 C 5.414062 -0.609375 5.097656 -0.359375 4.671875 -0.171875 C 4.242188 0.00390625 3.722656 0.09375 3.109375 0.09375 Z M 3.109375 0.09375 "/></g></g></g><g fill="#595959" fill-opacity="1"><g transform="translate(249.677135, 259.454925)"><g><path d="M 3.109375 0.09375 C 2.566406 0.09375 2.046875 0.0195312 1.546875 -0.125 C 1.046875 -0.28125 0.644531 -0.484375 0.34375 -0.734375 L 0.796875 -1.75 C 1.085938 -1.519531 1.441406 -1.332031 1.859375 -1.1875 C 2.273438 -1.050781 2.691406 -0.984375 3.109375 -0.984375 C 3.628906 -0.984375 4.015625 -1.066406 4.265625 -1.234375 C 4.523438 -1.398438 4.65625 -1.617188 4.65625 -1.890625 C 4.65625 -2.085938 4.582031 -2.25 4.4375 -2.375 C 4.300781 -2.507812 4.117188 -2.613281 3.890625 -2.6875 C 3.671875 -2.757812 3.375 -2.84375 3 -2.9375 C 2.46875 -3.0625 2.035156 -3.1875 1.703125 -3.3125 C 1.367188 -3.445312 1.082031 -3.644531 0.84375 -3.90625 C 0.613281 -4.175781 0.5 -4.546875 0.5 -5.015625 C 0.5 -5.398438 0.601562 -5.75 0.8125 -6.0625 C 1.019531 -6.382812 1.335938 -6.632812 1.765625 -6.8125 C 2.191406 -7 2.707031 -7.09375 3.3125 -7.09375 C 3.738281 -7.09375 4.160156 -7.039062 4.578125 -6.9375 C 4.992188 -6.832031 5.351562 -6.679688 5.65625 -6.484375 L 5.234375 -5.46875 C 4.929688 -5.644531 4.613281 -5.78125 4.28125 -5.875 C 3.945312 -5.96875 3.625 -6.015625 3.3125 -6.015625 C 2.800781 -6.015625 2.421875 -5.925781 2.171875 -5.75 C 1.921875 -5.582031 1.796875 -5.351562 1.796875 -5.0625 C 1.796875 -4.863281 1.863281 -4.703125 2 -4.578125 C 2.144531 -4.453125 2.328125 -4.351562 2.546875 -4.28125 C 2.765625 -4.207031 3.066406 -4.125 3.453125 -4.03125 C 3.972656 -3.90625 4.398438 -3.773438 4.734375 -3.640625 C 5.066406 -3.515625 5.347656 -3.316406 5.578125 -3.046875 C 5.816406 -2.785156 5.9375 -2.429688 5.9375 -1.984375 C 5.9375 -1.597656 5.832031 -1.242188 5.625 -0.921875 C 5.414062 -0.609375 5.097656 -0.359375 4.671875 -0.171875 C 4.242188 0.00390625 3.722656 0.09375 3.109375 0.09375 Z M 3.109375 0.09375 "/></g></g></g></svg>